<svg width="73" height="64" viewBox="0 0 73 64" fill="none" xmlns="http://www.w3.org/2000/svg">
<mask id="path-1-inside-1_694_348" fill="white">
<path d="M71.9538 7.39884H66.9595V2.40462C66.9595 1.8941 66.5452 1.47977 66.0347 1.47977H42.3584C39.8335 1.47977 37.6259 2.85503 36.4393 4.89433C35.2527 2.85503 33.0451 1.47977 30.5202 1.47977H22.5591C22.4823 0.651098 21.785 0 20.936 0H13.4687C12.6206 0 11.9223 0.651098 11.8455 1.47977H6.84393C6.33341 1.47977 5.91908 1.8941 5.91908 2.40462V7.39884H0.924856C0.414335 7.39884 0 7.81318 0 8.3237V60.1156C0 60.6261 0.414335 61.0405 0.924856 61.0405H27.2111C28.8999 61.0405 30.4176 61.9783 31.1723 63.4886C31.3286 63.8021 31.6495 64 31.9991 64H36.4384H40.8777C41.2282 64 41.5482 63.8021 41.7045 63.4886C42.4592 61.9783 43.9778 61.0405 45.6657 61.0405H71.9538C72.4643 61.0405 72.8786 60.6261 72.8786 60.1156V8.3237C72.8786 7.81318 72.4643 7.39884 71.9538 7.39884ZM42.3584 3.32948H65.1098V8.3237V53.2717H42.3584C42.2382 53.2717 42.1179 53.2754 41.9986 53.2809C41.9588 53.2828 41.92 53.2874 41.8802 53.2902C41.8016 53.2957 41.7221 53.3013 41.6444 53.3087C41.5972 53.3133 41.551 53.3207 41.5047 53.3262C41.4345 53.3346 41.3642 53.3429 41.2948 53.354C41.2449 53.3614 41.1968 53.3716 41.1477 53.3808C41.0821 53.3928 41.0164 53.4039 40.9517 53.4178C40.9017 53.428 40.8518 53.4409 40.8019 53.4529C40.739 53.4677 40.6761 53.4816 40.6141 53.4983C40.5632 53.5112 40.5142 53.5269 40.4643 53.5408C40.4042 53.5584 40.3431 53.575 40.2839 53.5944C40.234 53.6102 40.1841 53.6277 40.135 53.6453C40.0768 53.6657 40.0185 53.686 39.9602 53.7073C39.9112 53.7258 39.8622 53.7461 39.8132 53.7656C39.7568 53.7887 39.6994 53.8109 39.6439 53.8358C39.5958 53.8571 39.5478 53.8793 39.4997 53.9015C39.4451 53.9265 39.3896 53.9524 39.336 53.9792C39.2888 54.0023 39.2416 54.0273 39.1954 54.0513C39.1417 54.0791 39.089 54.1077 39.0363 54.1364C38.9901 54.1623 38.9447 54.1891 38.8985 54.216C38.8467 54.2465 38.7958 54.277 38.745 54.3084C38.7006 54.3362 38.6562 54.3649 38.6118 54.3935C38.5619 54.4259 38.5128 54.4601 38.4638 54.4934C38.4204 54.5239 38.3778 54.5545 38.3353 54.585C38.2872 54.6201 38.2391 54.6562 38.1919 54.6923C38.1503 54.7246 38.1087 54.757 38.068 54.7894C38.0217 54.8264 37.9764 54.8652 37.9302 54.904C37.8904 54.9383 37.8506 54.9725 37.8109 55.0076C37.7665 55.0474 37.723 55.0881 37.6786 55.1288C37.6407 55.1649 37.6028 55.2 37.5649 55.237C37.5223 55.2786 37.4807 55.3221 37.4382 55.3655C37.4132 55.3905 37.3882 55.4155 37.3642 55.4414V8.3237C37.3642 5.56948 39.6042 3.32948 42.3584 3.32948ZM13.6879 1.84971H20.7168V12.5142L17.7156 10.5128C17.5602 10.4092 17.3817 10.3575 17.2023 10.3575C17.0229 10.3575 16.8444 10.4092 16.689 10.5128L13.6879 12.5142V1.84971ZM7.76879 3.32948H11.8382V14.2428C11.8382 14.584 12.0259 14.8976 12.3265 15.0585C12.6271 15.2194 12.9924 15.2019 13.2763 15.0123L17.2023 12.3949L21.1283 15.0123C21.2828 15.1158 21.4622 15.1676 21.6416 15.1676C21.7914 15.1676 21.9413 15.1316 22.0782 15.0585C22.3787 14.8976 22.5665 14.584 22.5665 14.2428V3.32948H30.5202C33.2745 3.32948 35.5145 5.56948 35.5145 8.3237V55.4405C35.4904 55.4146 35.4645 55.3905 35.4405 55.3646C35.3988 55.3212 35.3572 55.2786 35.3138 55.2361C35.2768 55.1991 35.2388 55.1639 35.2 55.1279C35.1565 55.0872 35.1131 55.0465 35.0677 55.0067C35.0289 54.9716 34.9882 54.9373 34.9484 54.9031C34.9031 54.8643 34.8578 54.8264 34.8106 54.7884C34.7699 54.7551 34.7283 54.7228 34.6867 54.6913C34.6395 54.6553 34.5914 54.6192 34.5434 54.584C34.5008 54.5526 34.4583 54.5221 34.4148 54.4925C34.3658 54.4583 34.3168 54.425 34.2668 54.3926C34.2224 54.3639 34.178 54.3353 34.1336 54.3075C34.0828 54.2761 34.0319 54.2446 33.9801 54.215C33.9348 54.1882 33.8886 54.1614 33.8423 54.1355C33.7896 54.1059 33.7369 54.0781 33.6832 54.0504C33.6361 54.0264 33.5898 54.0014 33.5427 53.9783C33.4881 53.9514 33.4335 53.9255 33.379 53.9006C33.3309 53.8784 33.2828 53.8562 33.2347 53.8349C33.1792 53.8109 33.1219 53.7877 33.0654 53.7646C33.0164 53.7452 32.9683 53.7249 32.9184 53.7064C32.861 53.6851 32.8019 53.6647 32.7436 53.6444C32.6936 53.6277 32.6446 53.6102 32.5947 53.5935C32.5346 53.5741 32.4745 53.5575 32.4143 53.5399C32.3644 53.5251 32.3145 53.5103 32.2645 53.4973C32.2025 53.4807 32.1397 53.4668 32.0768 53.452C32.0268 53.44 31.9769 53.428 31.9269 53.4169C31.8622 53.403 31.7965 53.3919 31.7309 53.3799C31.6819 53.3706 31.6328 53.3614 31.5838 53.3531C31.5145 53.342 31.4442 53.3336 31.3739 53.3253C31.3276 53.3198 31.2814 53.3124 31.2342 53.3077C31.1556 53.2994 31.077 53.2948 30.9984 53.2892C30.9586 53.2865 30.9198 53.2819 30.88 53.28C30.7607 53.2735 30.6414 53.2707 30.5202 53.2707H7.76879V8.3237V3.32948ZM27.2111 59.1908H1.84971V9.24855H5.91908V54.1965C5.91908 54.7071 6.33341 55.1214 6.84393 55.1214H30.5202C33.2745 55.1214 35.5145 57.3614 35.5145 60.1156V62.1503H32.542C31.4016 60.3108 29.4086 59.1908 27.2111 59.1908ZM71.0289 59.1908H45.6675C43.471 59.1908 41.4779 60.3108 40.3376 62.1503H37.3642V60.1156C37.3642 57.3614 39.6042 55.1214 42.3584 55.1214H66.0347C66.5452 55.1214 66.9595 54.7071 66.9595 54.1965V9.24855H71.0289V59.1908Z"/>
</mask>
<path d="M71.9538 7.39884H66.9595V2.40462C66.9595 1.8941 66.5452 1.47977 66.0347 1.47977H42.3584C39.8335 1.47977 37.6259 2.85503 36.4393 4.89433C35.2527 2.85503 33.0451 1.47977 30.5202 1.47977H22.5591C22.4823 0.651098 21.785 0 20.936 0H13.4687C12.6206 0 11.9223 0.651098 11.8455 1.47977H6.84393C6.33341 1.47977 5.91908 1.8941 5.91908 2.40462V7.39884H0.924856C0.414335 7.39884 0 7.81318 0 8.3237V60.1156C0 60.6261 0.414335 61.0405 0.924856 61.0405H27.2111C28.8999 61.0405 30.4176 61.9783 31.1723 63.4886C31.3286 63.8021 31.6495 64 31.9991 64H36.4384H40.8777C41.2282 64 41.5482 63.8021 41.7045 63.4886C42.4592 61.9783 43.9778 61.0405 45.6657 61.0405H71.9538C72.4643 61.0405 72.8786 60.6261 72.8786 60.1156V8.3237C72.8786 7.81318 72.4643 7.39884 71.9538 7.39884ZM42.3584 3.32948H65.1098V8.3237V53.2717H42.3584C42.2382 53.2717 42.1179 53.2754 41.9986 53.2809C41.9588 53.2828 41.92 53.2874 41.8802 53.2902C41.8016 53.2957 41.7221 53.3013 41.6444 53.3087C41.5972 53.3133 41.551 53.3207 41.5047 53.3262C41.4345 53.3346 41.3642 53.3429 41.2948 53.354C41.2449 53.3614 41.1968 53.3716 41.1477 53.3808C41.0821 53.3928 41.0164 53.4039 40.9517 53.4178C40.9017 53.428 40.8518 53.4409 40.8019 53.4529C40.739 53.4677 40.6761 53.4816 40.6141 53.4983C40.5632 53.5112 40.5142 53.5269 40.4643 53.5408C40.4042 53.5584 40.3431 53.575 40.2839 53.5944C40.234 53.6102 40.1841 53.6277 40.135 53.6453C40.0768 53.6657 40.0185 53.686 39.9602 53.7073C39.9112 53.7258 39.8622 53.7461 39.8132 53.7656C39.7568 53.7887 39.6994 53.8109 39.6439 53.8358C39.5958 53.8571 39.5478 53.8793 39.4997 53.9015C39.4451 53.9265 39.3896 53.9524 39.336 53.9792C39.2888 54.0023 39.2416 54.0273 39.1954 54.0513C39.1417 54.0791 39.089 54.1077 39.0363 54.1364C38.9901 54.1623 38.9447 54.1891 38.8985 54.216C38.8467 54.2465 38.7958 54.277 38.745 54.3084C38.7006 54.3362 38.6562 54.3649 38.6118 54.3935C38.5619 54.4259 38.5128 54.4601 38.4638 54.4934C38.4204 54.5239 38.3778 54.5545 38.3353 54.585C38.2872 54.6201 38.2391 54.6562 38.1919 54.6923C38.1503 54.7246 38.1087 54.757 38.068 54.7894C38.0217 54.8264 37.9764 54.8652 37.9302 54.904C37.8904 54.9383 37.8506 54.9725 37.8109 55.0076C37.7665 55.0474 37.723 55.0881 37.6786 55.1288C37.6407 55.1649 37.6028 55.2 37.5649 55.237C37.5223 55.2786 37.4807 55.3221 37.4382 55.3655C37.4132 55.3905 37.3882 55.4155 37.3642 55.4414V8.3237C37.3642 5.56948 39.6042 3.32948 42.3584 3.32948ZM13.6879 1.84971H20.7168V12.5142L17.7156 10.5128C17.5602 10.4092 17.3817 10.3575 17.2023 10.3575C17.0229 10.3575 16.8444 10.4092 16.689 10.5128L13.6879 12.5142V1.84971ZM7.76879 3.32948H11.8382V14.2428C11.8382 14.584 12.0259 14.8976 12.3265 15.0585C12.6271 15.2194 12.9924 15.2019 13.2763 15.0123L17.2023 12.3949L21.1283 15.0123C21.2828 15.1158 21.4622 15.1676 21.6416 15.1676C21.7914 15.1676 21.9413 15.1316 22.0782 15.0585C22.3787 14.8976 22.5665 14.584 22.5665 14.2428V3.32948H30.5202C33.2745 3.32948 35.5145 5.56948 35.5145 8.3237V55.4405C35.4904 55.4146 35.4645 55.3905 35.4405 55.3646C35.3988 55.3212 35.3572 55.2786 35.3138 55.2361C35.2768 55.1991 35.2388 55.1639 35.2 55.1279C35.1565 55.0872 35.1131 55.0465 35.0677 55.0067C35.0289 54.9716 34.9882 54.9373 34.9484 54.9031C34.9031 54.8643 34.8578 54.8264 34.8106 54.7884C34.7699 54.7551 34.7283 54.7228 34.6867 54.6913C34.6395 54.6553 34.5914 54.6192 34.5434 54.584C34.5008 54.5526 34.4583 54.5221 34.4148 54.4925C34.3658 54.4583 34.3168 54.425 34.2668 54.3926C34.2224 54.3639 34.178 54.3353 34.1336 54.3075C34.0828 54.2761 34.0319 54.2446 33.9801 54.215C33.9348 54.1882 33.8886 54.1614 33.8423 54.1355C33.7896 54.1059 33.7369 54.0781 33.6832 54.0504C33.6361 54.0264 33.5898 54.0014 33.5427 53.9783C33.4881 53.9514 33.4335 53.9255 33.379 53.9006C33.3309 53.8784 33.2828 53.8562 33.2347 53.8349C33.1792 53.8109 33.1219 53.7877 33.0654 53.7646C33.0164 53.7452 32.9683 53.7249 32.9184 53.7064C32.861 53.6851 32.8019 53.6647 32.7436 53.6444C32.6936 53.6277 32.6446 53.6102 32.5947 53.5935C32.5346 53.5741 32.4745 53.5575 32.4143 53.5399C32.3644 53.5251 32.3145 53.5103 32.2645 53.4973C32.2025 53.4807 32.1397 53.4668 32.0768 53.452C32.0268 53.44 31.9769 53.428 31.9269 53.4169C31.8622 53.403 31.7965 53.3919 31.7309 53.3799C31.6819 53.3706 31.6328 53.3614 31.5838 53.3531C31.5145 53.342 31.4442 53.3336 31.3739 53.3253C31.3276 53.3198 31.2814 53.3124 31.2342 53.3077C31.1556 53.2994 31.077 53.2948 30.9984 53.2892C30.9586 53.2865 30.9198 53.2819 30.88 53.28C30.7607 53.2735 30.6414 53.2707 30.5202 53.2707H7.76879V8.3237V3.32948ZM27.2111 59.1908H1.84971V9.24855H5.91908V54.1965C5.91908 54.7071 6.33341 55.1214 6.84393 55.1214H30.5202C33.2745 55.1214 35.5145 57.3614 35.5145 60.1156V62.1503H32.542C31.4016 60.3108 29.4086 59.1908 27.2111 59.1908ZM71.0289 59.1908H45.6675C43.471 59.1908 41.4779 60.3108 40.3376 62.1503H37.3642V60.1156C37.3642 57.3614 39.6042 55.1214 42.3584 55.1214H66.0347C66.5452 55.1214 66.9595 54.7071 66.9595 54.1965V9.24855H71.0289V59.1908Z" fill="#7A4A2E" stroke="#7A4A2E" stroke-width="35.0415" mask="url(#path-1-inside-1_694_348)"/>
<mask id="path-2-inside-2_694_348" fill="white">
<path d="M30.5209 22.1965H12.7637V24.0462H30.5209V22.1965Z"/>
</mask>
<path d="M30.5209 22.1965H12.7637V24.0462H30.5209V22.1965Z" fill="#7A4A2E"/>
<path d="M12.7637 22.1965V4.67578H-4.75708V22.1965H12.7637ZM30.5209 22.1965H48.0417V4.67578H30.5209V22.1965ZM30.5209 24.0462V41.567H48.0417V24.0462H30.5209ZM12.7637 24.0462H-4.75708V41.567H12.7637V24.0462ZM12.7637 22.1965V39.7173H30.5209V22.1965V4.67578H12.7637V22.1965ZM30.5209 22.1965H13.0001V24.0462H30.5209H48.0417V22.1965H30.5209ZM30.5209 24.0462V6.52549H12.7637V24.0462V41.567H30.5209V24.0462ZM12.7637 24.0462H30.2844V22.1965H12.7637H-4.75708V24.0462H12.7637Z" fill="#7A4A2E" mask="url(#path-2-inside-2_694_348)"/>
<mask id="path-4-inside-3_694_348" fill="white">
<path d="M30.5213 11.8381H26.082V13.6878H30.5213V11.8381Z"/>
</mask>
<path d="M30.5213 11.8381H26.082V13.6878H30.5213V11.8381Z" fill="#7A4A2E"/>
<path d="M26.082 11.8381V-5.68262H8.56128V11.8381H26.082ZM30.5213 11.8381H48.0421V-5.68262H30.5213V11.8381ZM30.5213 13.6878V31.2086H48.0421V13.6878H30.5213ZM26.082 13.6878H8.56128V31.2086H26.082V13.6878ZM26.082 11.8381V29.3589H30.5213V11.8381V-5.68262H26.082V11.8381ZM30.5213 11.8381H13.0006V13.6878H30.5213H48.0421V11.8381H30.5213ZM30.5213 13.6878V-3.83291H26.082V13.6878V31.2086H30.5213V13.6878ZM26.082 13.6878H43.6028V11.8381H26.082H8.56128V13.6878H26.082Z" fill="#7A4A2E" mask="url(#path-4-inside-3_694_348)"/>
<mask id="path-6-inside-4_694_348" fill="white">
<path d="M30.5209 32.5549H12.7637V34.4046H30.5209V32.5549Z"/>
</mask>
<path d="M30.5209 32.5549H12.7637V34.4046H30.5209V32.5549Z" fill="#7A4A2E"/>
<path d="M12.7637 32.5549V15.0342H-4.75708V32.5549H12.7637ZM30.5209 32.5549H48.0417V15.0342H30.5209V32.5549ZM30.5209 34.4046V51.9254H48.0417V34.4046H30.5209ZM12.7637 34.4046H-4.75708V51.9254H12.7637V34.4046ZM12.7637 32.5549V50.0757H30.5209V32.5549V15.0342H12.7637V32.5549ZM30.5209 32.5549H13.0001V34.4046H30.5209H48.0417V32.5549H30.5209ZM30.5209 34.4046V16.8839H12.7637V34.4046V51.9254H30.5209V34.4046ZM12.7637 34.4046H30.2844V32.5549H12.7637H-4.75708V34.4046H12.7637Z" fill="#7A4A2E" mask="url(#path-6-inside-4_694_348)"/>
<mask id="path-8-inside-5_694_348" fill="white">
<path d="M30.5209 42.9133H12.7637V44.763H30.5209V42.9133Z"/>
</mask>
<path d="M30.5209 42.9133H12.7637V44.763H30.5209V42.9133Z" fill="#7A4A2E"/>
<path d="M12.7637 42.9133V25.3925H-4.75708V42.9133H12.7637ZM30.5209 42.9133H48.0417V25.3925H30.5209V42.9133ZM30.5209 44.763V62.2838H48.0417V44.763H30.5209ZM12.7637 44.763H-4.75708V62.2838H12.7637V44.763ZM12.7637 42.9133V60.4341H30.5209V42.9133V25.3925H12.7637V42.9133ZM30.5209 42.9133H13.0001V44.763H30.5209H48.0417V42.9133H30.5209ZM30.5209 44.763V27.2423H12.7637V44.763V62.2838H30.5209V44.763ZM12.7637 44.763H30.2844V42.9133H12.7637H-4.75708V44.763H12.7637Z" fill="#7A4A2E" mask="url(#path-8-inside-5_694_348)"/>
<mask id="path-10-inside-6_694_348" fill="white">
<path d="M60.1166 11.8381H42.3594V13.6878H60.1166V11.8381Z"/>
</mask>
<path d="M60.1166 11.8381H42.3594V13.6878H60.1166V11.8381Z" fill="#7A4A2E"/>
<path d="M42.3594 11.8381V-5.68262H24.8386V11.8381H42.3594ZM60.1166 11.8381H77.6374V-5.68262H60.1166V11.8381ZM60.1166 13.6878V31.2086H77.6374V13.6878H60.1166ZM42.3594 13.6878H24.8386V31.2086H42.3594V13.6878ZM42.3594 11.8381V29.3589H60.1166V11.8381V-5.68262H42.3594V11.8381ZM60.1166 11.8381H42.5958V13.6878H60.1166H77.6374V11.8381H60.1166ZM60.1166 13.6878V-3.83291H42.3594V13.6878V31.2086H60.1166V13.6878ZM42.3594 13.6878H59.8801V11.8381H42.3594H24.8386V13.6878H42.3594Z" fill="#7A4A2E" mask="url(#path-10-inside-6_694_348)"/>
<mask id="path-12-inside-7_694_348" fill="white">
<path d="M60.1166 22.1965H42.3594V24.0462H60.1166V22.1965Z"/>
</mask>
<path d="M60.1166 22.1965H42.3594V24.0462H60.1166V22.1965Z" fill="#7A4A2E"/>
<path d="M42.3594 22.1965V4.67578H24.8386V22.1965H42.3594ZM60.1166 22.1965H77.6374V4.67578H60.1166V22.1965ZM60.1166 24.0462V41.567H77.6374V24.0462H60.1166ZM42.3594 24.0462H24.8386V41.567H42.3594V24.0462ZM42.3594 22.1965V39.7173H60.1166V22.1965V4.67578H42.3594V22.1965ZM60.1166 22.1965H42.5958V24.0462H60.1166H77.6374V22.1965H60.1166ZM60.1166 24.0462V6.52549H42.3594V24.0462V41.567H60.1166V24.0462ZM42.3594 24.0462H59.8801V22.1965H42.3594H24.8386V24.0462H42.3594Z" fill="#7A4A2E" mask="url(#path-12-inside-7_694_348)"/>
<mask id="path-14-inside-8_694_348" fill="white">
<path d="M60.1166 32.5549H42.3594V34.4046H60.1166V32.5549Z"/>
</mask>
<path d="M60.1166 32.5549H42.3594V34.4046H60.1166V32.5549Z" fill="#7A4A2E"/>
<path d="M42.3594 32.5549V15.0342H24.8386V32.5549H42.3594ZM60.1166 32.5549H77.6374V15.0342H60.1166V32.5549ZM60.1166 34.4046V51.9254H77.6374V34.4046H60.1166ZM42.3594 34.4046H24.8386V51.9254H42.3594V34.4046ZM42.3594 32.5549V50.0757H60.1166V32.5549V15.0342H42.3594V32.5549ZM60.1166 32.5549H42.5958V34.4046H60.1166H77.6374V32.5549H60.1166ZM60.1166 34.4046V16.8839H42.3594V34.4046V51.9254H60.1166V34.4046ZM42.3594 34.4046H59.8801V32.5549H42.3594H24.8386V34.4046H42.3594Z" fill="#7A4A2E" mask="url(#path-14-inside-8_694_348)"/>
<mask id="path-16-inside-9_694_348" fill="white">
<path d="M60.1166 42.9133H42.3594V44.763H60.1166V42.9133Z"/>
</mask>
<path d="M60.1166 42.9133H42.3594V44.763H60.1166V42.9133Z" fill="#7A4A2E"/>
<path d="M42.3594 42.9133V25.3925H24.8386V42.9133H42.3594ZM60.1166 42.9133H77.6374V25.3925H60.1166V42.9133ZM60.1166 44.763V62.2838H77.6374V44.763H60.1166ZM42.3594 44.763H24.8386V62.2838H42.3594V44.763ZM42.3594 42.9133V60.4341H60.1166V42.9133V25.3925H42.3594V42.9133ZM60.1166 42.9133H42.5958V44.763H60.1166H77.6374V42.9133H60.1166ZM60.1166 44.763V27.2423H42.3594V44.763V62.2838H60.1166V44.763ZM42.3594 44.763H59.8801V42.9133H42.3594H24.8386V44.763H42.3594Z" fill="#7A4A2E" mask="url(#path-16-inside-9_694_348)"/>
</svg>
